# xmcd
#
# Track frame offsets:
#	150
#	11763
#	22508
#	34852
#	48790
#	59598
#	70153
#	83217
#	100239
#	114338
#	125829
#	144320
#	157373
#	166848
#	180087
#	191279
#	204490
#	219937
#	239761
#	252148
#	262740
#	274790
#	290288
#
# Disc length: 4024 seconds
#
# Revision: 3
# Processed by: cddbd v1.5.1PL2 Copyright (c) Steve Scherf et al.
# Submitted via: audiograbber 1.83.01
#
DISCID=390fb617
DTITLE=Linda Ronstadt - Best Of - Capitol Years - CD1
DYEAR=2006
DGENRE=Country
TTITLE0=Baby You've Been On My Mind
TTITLE1=Silver Threads And Golden Needles
TTITLE2=Bet No One Ever Hurt This Bad
TTITLE3=A Number And A Name
TTITLE4=The Only Mama That'll Walk The Line
TTITLE5=The Long Way Around
TTITLE6=Break My Mind
TTITLE7=I'll Be Your Baby Tonight
TTITLE8=It's About Time
TTITLE9=We Need A Whole Lot More Of Jesus (And A Lot Less Rock and Roll)
TTITLE10=The Dolphins
TTITLE11=It Won't Be Easy
TTITLE12=Lovesick Blues
TTITLE13=Are My Thoughts With You?
TTITLE14=Will You Love Me Tomorrow?
TTITLE15=Nobody's
TTITLE16=Louise
TTITLE17=Long Long Time
TTITLE18=Mental Revenge
TTITLE19=I'm Leavin' It All Up To You
TTITLE20=He Darked The Sun
TTITLE21=Life Is Like A Mountain Railway
TTITLE22=He Darked The Sun
EXTD=
EXTT0=
EXTT1=
EXTT2=
EXTT3=
EXTT4=
EXTT5=
EXTT6=
EXTT7=
EXTT8=
EXTT9=
EXTT10=
EXTT11=
EXTT12=
EXTT13=
EXTT14=
EXTT15=
EXTT16=
EXTT17=
EXTT18=
EXTT19=
EXTT20=
EXTT21=
EXTT22=
PLAYORDER=
